<svg xmlns="http://www.w3.org/2000/svg" xmlns:xlink="http://www.w3.org/1999/xlink" width="219" zoomAndPan="magnify" viewBox="0 0 164.25 42" height="56" preserveAspectRatio="xMidYMid meet" version="1.0"><defs><g/><clipPath id="a96e3d9e8a"><path d="M 1.542969 0 L 41.835938 0 L 41.835938 40.289062 L 1.542969 40.289062 Z M 1.542969 0 " clip-rule="nonzero"/></clipPath></defs><g clip-path="url(#a96e3d9e8a)"><path fill="#ff4c4c" d="M 21.757812 0 C 10.59375 0 1.542969 9.050781 1.542969 20.214844 C 1.542969 31.378906 10.59375 40.429688 21.757812 40.429688 C 32.921875 40.429688 41.972656 31.378906 41.972656 20.214844 C 41.972656 9.050781 32.921875 0 21.757812 0 Z M 21.757812 3.160156 C 31.175781 3.160156 38.8125 10.792969 38.8125 20.214844 C 38.8125 29.632812 31.175781 37.269531 21.757812 37.269531 C 12.339844 37.269531 4.703125 29.632812 4.703125 20.214844 C 4.703125 10.792969 12.339844 3.160156 21.757812 3.160156 Z M 21.757812 3.160156 " fill-opacity="1" fill-rule="evenodd"/></g><path fill="#ff4c4c" d="M 21.757812 4.738281 C 20.683594 4.738281 19.632812 4.847656 18.621094 5.054688 L 17.738281 7.4375 L 14.851562 15.210938 L 18.097656 17.085938 C 18.980469 16.054688 20.292969 15.398438 21.757812 15.398438 C 23.222656 15.398438 24.535156 16.054688 25.417969 17.085938 L 28.664062 15.210938 L 25.777344 7.4375 L 24.894531 5.054688 C 23.878906 4.847656 22.832031 4.738281 21.757812 4.738281 Z M 21.757812 4.738281 " fill-opacity="1" fill-rule="evenodd"/><path fill="#ff4c4c" d="M 24.996094 20.214844 C 24.996094 20.644531 24.914062 21.054688 24.75 21.453125 C 24.585938 21.847656 24.351562 22.199219 24.046875 22.503906 C 23.742188 22.804688 23.394531 23.039062 22.996094 23.203125 C 22.601562 23.367188 22.1875 23.449219 21.757812 23.449219 C 21.328125 23.449219 20.914062 23.367188 20.519531 23.203125 C 20.121094 23.039062 19.773438 22.804688 19.46875 22.503906 C 19.164062 22.199219 18.929688 21.847656 18.765625 21.453125 C 18.601562 21.054688 18.519531 20.644531 18.519531 20.214844 C 18.519531 19.785156 18.601562 19.371094 18.765625 18.976562 C 18.929688 18.578125 19.164062 18.226562 19.46875 17.925781 C 19.773438 17.621094 20.121094 17.386719 20.519531 17.222656 C 20.914062 17.058594 21.328125 16.976562 21.757812 16.976562 C 22.1875 16.976562 22.601562 17.058594 22.996094 17.222656 C 23.394531 17.386719 23.742188 17.621094 24.046875 17.925781 C 24.351562 18.226562 24.585938 18.578125 24.75 18.976562 C 24.914062 19.371094 24.996094 19.785156 24.996094 20.214844 Z M 24.996094 20.214844 " fill-opacity="1" fill-rule="evenodd"/><path fill="#ff4c4c" d="M 35.164062 27.945312 C 35.699219 27.015625 36.128906 26.054688 36.457031 25.070312 L 34.835938 23.117188 L 29.546875 16.730469 L 26.300781 18.605469 C 26.75 19.886719 26.664062 21.347656 25.929688 22.617188 C 25.199219 23.886719 23.976562 24.691406 22.640625 24.941406 L 22.640625 28.691406 L 30.816406 30.078125 L 33.320312 30.503906 C 34.007812 29.730469 34.625 28.878906 35.164062 27.945312 Z M 35.164062 27.945312 " fill-opacity="1" fill-rule="evenodd"/><path fill="#ff4c4c" d="M 8.351562 27.945312 C 8.890625 28.878906 9.507812 29.730469 10.195312 30.503906 L 12.699219 30.078125 L 20.875 28.691406 L 20.875 24.941406 C 19.539062 24.691406 18.316406 23.886719 17.585938 22.617188 C 16.851562 21.347656 16.765625 19.886719 17.214844 18.605469 L 13.96875 16.730469 L 8.679688 23.117188 L 7.058594 25.070312 C 7.386719 26.054688 7.816406 27.015625 8.351562 27.945312 Z M 8.351562 27.945312 " fill-opacity="1" fill-rule="evenodd"/><g fill="#ffffff" fill-opacity="1"><g transform="translate(55.653931, 25.186403)"><g><path d="M 6.640625 0 L 3.375 0 L 3.375 -9.421875 L 0.421875 -9.421875 L 0.421875 -12.109375 L 9.59375 -12.109375 L 9.59375 -9.421875 L 6.640625 -9.421875 Z M 6.640625 0 "/></g></g></g><g fill="#ffffff" fill-opacity="1"><g transform="translate(65.669429, 25.186403)"><g><path d="M 12.625 -6.0625 C 12.625 -4.03125 12.125 -2.484375 11.125 -1.421875 C 10.132812 -0.359375 8.675781 0.171875 6.75 0.171875 C 4.851562 0.171875 3.394531 -0.359375 2.375 -1.421875 C 1.363281 -2.492188 0.859375 -4.046875 0.859375 -6.078125 C 0.859375 -8.097656 1.359375 -9.640625 2.359375 -10.703125 C 3.367188 -11.765625 4.835938 -12.296875 6.765625 -12.296875 C 8.691406 -12.296875 10.148438 -11.765625 11.140625 -10.703125 C 12.128906 -9.648438 12.625 -8.101562 12.625 -6.0625 Z M 4.296875 -6.0625 C 4.296875 -3.726562 5.113281 -2.5625 6.75 -2.5625 C 7.570312 -2.5625 8.179688 -2.84375 8.578125 -3.40625 C 8.984375 -3.976562 9.1875 -4.863281 9.1875 -6.0625 C 9.1875 -7.269531 8.984375 -8.160156 8.578125 -8.734375 C 8.171875 -9.316406 7.566406 -9.609375 6.765625 -9.609375 C 5.117188 -9.609375 4.296875 -8.425781 4.296875 -6.0625 Z M 4.296875 -6.0625 "/></g></g></g><g fill="#ffffff" fill-opacity="1"><g transform="translate(79.177937, 25.186403)"><g><path d="M 10.09375 -8.25 C 10.09375 -6.894531 9.691406 -5.847656 8.890625 -5.109375 C 8.097656 -4.378906 6.96875 -4.015625 5.5 -4.015625 L 4.578125 -4.015625 L 4.578125 0 L 1.3125 0 L 1.3125 -12.109375 L 5.5 -12.109375 C 7.03125 -12.109375 8.175781 -11.769531 8.9375 -11.09375 C 9.707031 -10.425781 10.09375 -9.476562 10.09375 -8.25 Z M 4.578125 -6.6875 L 5.171875 -6.6875 C 5.660156 -6.6875 6.050781 -6.820312 6.34375 -7.09375 C 6.632812 -7.375 6.78125 -7.753906 6.78125 -8.234375 C 6.78125 -9.054688 6.328125 -9.46875 5.421875 -9.46875 L 4.578125 -9.46875 Z M 4.578125 -6.6875 "/></g></g></g><g fill="#ff4c4c" fill-opacity="1"><g transform="translate(89.889576, 25.186403)"><g><path d="M 6.703125 -9.59375 C 5.921875 -9.59375 5.3125 -9.273438 4.875 -8.640625 C 4.4375 -8.003906 4.21875 -7.125 4.21875 -6 C 4.21875 -3.675781 5.101562 -2.515625 6.875 -2.515625 C 7.414062 -2.515625 7.9375 -2.585938 8.4375 -2.734375 C 8.9375 -2.878906 9.441406 -3.054688 9.953125 -3.265625 L 9.953125 -0.5 C 8.941406 -0.0507812 7.796875 0.171875 6.515625 0.171875 C 4.691406 0.171875 3.289062 -0.359375 2.3125 -1.421875 C 1.34375 -2.484375 0.859375 -4.015625 0.859375 -6.015625 C 0.859375 -7.265625 1.09375 -8.363281 1.5625 -9.3125 C 2.039062 -10.269531 2.722656 -11.003906 3.609375 -11.515625 C 4.492188 -12.023438 5.535156 -12.28125 6.734375 -12.28125 C 8.035156 -12.28125 9.285156 -11.992188 10.484375 -11.421875 L 9.484375 -8.84375 C 9.035156 -9.050781 8.585938 -9.226562 8.140625 -9.375 C 7.691406 -9.519531 7.210938 -9.59375 6.703125 -9.59375 Z M 6.703125 -9.59375 "/></g></g></g><g fill="#ff4c4c" fill-opacity="1"><g transform="translate(100.890076, 25.186403)"><g><path d="M 8.734375 0 L 8.140625 -2.265625 L 4.203125 -2.265625 L 3.59375 0 L 0 0 L 3.953125 -12.15625 L 8.3125 -12.15625 L 12.3125 0 Z M 7.453125 -4.953125 L 6.9375 -6.9375 C 6.8125 -7.375 6.660156 -7.941406 6.484375 -8.640625 C 6.316406 -9.347656 6.207031 -9.851562 6.15625 -10.15625 C 6.101562 -9.875 6.003906 -9.410156 5.859375 -8.765625 C 5.710938 -8.117188 5.390625 -6.847656 4.890625 -4.953125 Z M 7.453125 -4.953125 "/></g></g></g><g fill="#ff4c4c" fill-opacity="1"><g transform="translate(113.198385, 25.186403)"><g><path d="M 4.578125 -4.40625 L 4.578125 0 L 1.3125 0 L 1.3125 -12.109375 L 5.265625 -12.109375 C 8.554688 -12.109375 10.203125 -10.914062 10.203125 -8.53125 C 10.203125 -7.125 9.519531 -6.035156 8.15625 -5.265625 L 11.6875 0 L 7.96875 0 L 5.40625 -4.40625 Z M 4.578125 -6.859375 L 5.1875 -6.859375 C 6.332031 -6.859375 6.90625 -7.363281 6.90625 -8.375 C 6.90625 -9.207031 6.34375 -9.625 5.21875 -9.625 L 4.578125 -9.625 Z M 4.578125 -6.859375 "/></g></g></g></svg>